<?xml version="1.0" standalone="no"?>
<!DOCTYPE svg PUBLIC "-//W3C//DTD SVG 20010904//EN"
 "http://www.w3.org/TR/2001/REC-SVG-20010904/DTD/svg10.dtd">
<svg version="1.0" xmlns="http://www.w3.org/2000/svg"
 width="400.000000pt" height="400.000000pt" viewBox="0 0 400.000000 400.000000"
 preserveAspectRatio="xMidYMid meet">
<metadata>
Created by potrace 1.14, written by Peter Selinger 2001-2017
</metadata>
<g transform="translate(0.000000,400.000000) scale(0.100000,-0.100000)"
fill="#000000" stroke="none">
<path d="M0 2000 l0 -2000 2000 0 2000 0 0 2000 0 2000 -2000 0 -2000 0 0
-2000z m2151 1288 c6 -9 11 -9 23 1 26 22 196 17 306 -9 95 -23 218 -64 233
-79 20 -20 107 -453 107 -537 l0 -32 -72 20 c-62 17 -93 19 -208 14 -172 -7
-387 -45 -406 -71 -18 -24 -18 -40 2 -59 28 -28 78 -25 327 20 118 21 220 34
272 34 l85 0 0 -47 0 -48 -298 -1 c-172 -1 -315 -5 -341 -12 l-43 -10 -30 66
c-59 130 -130 318 -163 432 -35 120 -63 306 -48 321 21 21 241 19 254 -3z
m-931 -364 c27 -56 74 -135 105 -175 l55 -74 -72 -12 c-39 -7 -93 -23 -119
-36 l-48 -24 -7 46 c-11 68 -10 359 0 416 l9 50 14 -45 c7 -25 35 -90 63 -146z
m609 -299 c0 -5 -6 -1 -14 9 -8 11 -15 27 -15 35 1 17 29 -26 29 -44z m-368
-54 c19 -4 55 -22 79 -39 l43 -32 -125 0 c-69 0 -166 -3 -216 -6 l-92 -7 0 41
c0 38 2 41 38 51 40 11 213 6 273 -8z m452 -70 l18 -31 -34 0 c-26 0 -36 6
-45 24 -8 18 -7 26 6 38 20 17 30 11 55 -31z m-259 -35 c19 -8 64 -50 108
-102 103 -122 300 -306 312 -293 2 2 -21 47 -51 99 -30 52 -75 132 -99 176
l-45 82 40 4 c38 3 45 -1 123 -69 46 -40 85 -78 86 -83 2 -6 10 -10 18 -10 8
0 37 -11 64 -25 28 -14 50 -23 50 -19 0 3 -23 51 -51 106 -65 126 -64 127 87
139 133 10 379 11 464 2 l62 -6 -6 -47 c-14 -106 -79 -268 -166 -417 -17 -29
-26 -53 -21 -53 20 0 136 97 178 149 24 31 64 97 88 146 45 90 45 90 45 49 0
-89 -96 -354 -199 -549 -32 -60 -99 -177 -149 -260 -50 -82 -89 -152 -86 -154
5 -5 139 98 205 157 91 81 215 247 292 387 21 39 36 61 33 50 -69 -278 -148
-483 -239 -625 -80 -125 -186 -256 -283 -351 -87 -84 -144 -130 -144 -115 0 3
10 22 23 43 21 37 22 47 22 289 0 233 -1 253 -19 273 -23 25 -264 121 -304
121 -35 0 -62 -41 -46 -68 6 -9 53 -31 105 -48 204 -67 213 -79 213 -275 0
-128 -1 -139 -24 -172 -30 -44 -74 -71 -104 -63 -13 3 -71 56 -130 117 l-106
110 -106 -110 c-59 -61 -117 -114 -130 -117 -30 -8 -74 19 -104 63 -23 33 -24
44 -24 172 0 196 9 208 213 275 52 17 99 39 105 48 16 27 -11 68 -46 68 -40 0
-281 -96 -304 -121 -17 -19 -19 -41 -21 -262 -2 -256 -4 -240 45 -340 2 -5 -6
-3 -19 3 -44 23 -220 204 -293 300 -115 151 -141 201 -175 335 -67 266 -131
609 -131 705 l0 55 42 -50 c23 -27 86 -95 139 -150 l98 -99 -29 94 c-27 93
-100 403 -100 427 0 15 52 19 283 21 132 2 186 -2 211 -12z m1636 -6 c30 -16
41 -68 47 -207 l6 -131 -32 -68 c-17 -37 -56 -97 -85 -133 -30 -36 -78 -106
-107 -156 -53 -88 -91 -124 -121 -112 -13 5 -11 23 20 131 20 69 39 123 44
120 4 -3 5 2 2 10 -7 18 56 226 68 226 5 0 16 -17 25 -37 13 -31 14 -48 5 -88
-5 -27 -9 -51 -8 -52 1 -1 19 11 39 28 50 41 51 87 2 176 l-35 64 29 111 c33
126 50 146 101 118z m-2170 -33 c0 -18 -2 -19 -10 -7 -13 20 -13 43 0 35 6 -3
10 -16 10 -28z m683 -34 c26 -36 46 -68 43 -70 -4 -5 -98 109 -104 128 -10 28
19 0 61 -58z m1047 -43 l-11 -25 6 25 c2 14 5 34 6 45 2 19 2 19 6 0 2 -12 -1
-32 -7 -45z m-2138 -220 c16 -80 32 -154 34 -165 l5 -20 -16 20 c-33 40 -73
131 -80 184 -4 29 -4 92 1 140 l7 86 10 -50 c4 -27 22 -115 39 -195z m913
-1318 c22 -11 71 -47 110 -81 194 -169 334 -169 530 0 39 33 88 69 110 81 22
11 58 35 80 53 l40 32 -3 -71 c-5 -93 7 -113 119 -201 49 -38 89 -75 89 -81 0
-22 -117 -120 -186 -156 -268 -140 -719 -146 -999 -13 -84 40 -183 110 -207
147 l-17 25 94 74 c116 92 128 111 123 205 l-3 71 40 -32 c22 -18 58 -42 80
-53z"/>
<path d="M1345 2451 c-46 -12 -135 -53 -135 -61 0 -5 17 0 38 10 48 23 132 40
185 39 27 -1 33 -3 17 -6 -14 -3 -37 -16 -52 -30 -48 -45 -49 -118 -2 -168
l25 -27 -38 6 c-68 12 -126 48 -150 91 -18 32 -23 35 -23 18 0 -34 55 -89 108
-108 62 -21 162 -28 237 -17 42 7 50 10 26 11 l-34 1 26 26 c29 29 43 80 31
116 l-8 23 -6 -25 c-9 -38 -46 -39 -67 -2 -15 26 -25 31 -72 37 -52 7 -54 8
-36 22 15 11 37 13 82 10 35 -3 60 -1 57 4 -8 13 2 11 56 -12 34 -14 64 -39
95 -76 55 -68 60 -54 6 15 -59 75 -129 106 -245 109 -50 1 -104 -2 -121 -6z
m80 -171 c11 -17 -5 -32 -21 -19 -8 6 -14 15 -14 20 0 12 27 11 35 -1z"/>
<path d="M2412 2441 c-68 -23 -121 -66 -151 -122 l-24 -44 54 59 c49 54 113
95 148 96 10 0 6 -9 -11 -27 -48 -52 -49 -116 -3 -166 l26 -27 -38 -1 c-31 -1
-28 -3 22 -11 177 -28 347 36 345 129 -1 11 -6 7 -14 -13 -18 -41 -58 -71
-119 -89 -69 -20 -74 -19 -44 11 29 29 43 80 31 116 l-8 23 -6 -25 c-9 -38
-46 -39 -68 -1 -14 25 -25 32 -62 37 -65 8 -68 10 -35 24 17 6 54 10 83 8 55
-5 60 7 7 16 -16 2 2 3 41 1 39 -2 97 -13 130 -24 41 -13 53 -15 39 -5 -69 51
-246 69 -343 35z m43 -161 c11 -17 -5 -32 -21 -19 -8 6 -14 15 -14 20 0 12 27
11 35 -1z"/>
<path d="M2338 2213 c6 -2 18 -2 25 0 6 3 1 5 -13 5 -14 0 -19 -2 -12 -5z"/>
<path d="M1869 1668 l-24 -19 24 11 c13 7 36 9 52 6 37 -7 37 -1 1 12 -23 8
-33 6 -53 -10z"/>
<path d="M2066 1677 c-15 -11 -11 -13 28 -12 47 0 59 8 30 19 -24 9 -38 7 -58
-7z"/>
<path d="M3288 2392 c-22 -4 -22 -13 -2 -60 9 -20 20 -64 24 -97 l7 -60 1 60
c0 33 -3 83 -6 110 -6 41 -10 50 -24 47z"/>
<path d="M3112 2030 c0 -14 2 -19 5 -12 2 6 2 18 0 25 -3 6 -5 1 -5 -13z"/>
</g>
</svg>
